<svg xmlns="http://www.w3.org/2000/svg" version="1.1" viewBox="-5.0 -10.0 110.0 135.0">
 <path d="m94.062 47.668c-0.30078-5.082-1.1055-10.156-2.375-15.082-0.94922-3.668-4.2617-6.2383-8.0742-6.2383h-7.5625v-4.1055c-0.0625-2.582-1.2188-5.0742-3.168-6.7617-0.98828-6.9375-8.9062-10.969-15.656-5.8555-4.1758-5-11.75-5.543-16.543-1.9492-2.543-1.7305-7.0938-1.4492-9.457 0.91797-4.6992-6.4258-14.863-5.9805-18.488 2.5625-5.2383 0.125-6.8945 4.1992-6.793 8.6133-0.36328 9.707 0 18.812 0 18.863-0.03125 2.9805 3.25 4.6758 5.8242 3.4688v45.395c0 4.5938 3.7383 8.332 8.332 8.332h41.668c4.5938 0 8.332-3.7383 8.332-8.332v-4.957c4.1367-2.5312 13.719-8.4688 19.613-12.457 1.9062-1.293 3.1992-3.332 3.5508-5.6133 0.85547-5.5508 1.125-11.199 0.78125-16.801zm-83.887-7.2812c-1.0938 0.13672-2.1445-0.60547-2.1367-1.793 0-0.09375-0.35547-9.1133 0-18.738-0.03125-4.168 1.1562-6.7812 5.3945-6.6055 0.44922 0.042969 0.88672-0.26953 1.0312-0.71875 1.2188-3.7383 4.6562-6.3125 8.3633-6.2695 4.7695 0.0625 7.3438 4.457 7.375 4.5 0.33203 0.63672 1.3008 0.69922 1.7188 0.125 1.875-2.5195 5.8438-2.9375 8.1875-1.082 0.38672 0.28125 0.91797 0.26953 1.2812-0.03125 4.2695-3.5625 11.27-3.0938 14.844 1.9688 0.34375 0.51172 1.1367 0.58203 1.5625 0.14453 5.5938-5.1133 12.5-1.625 13.074 4.2695 0.03125 0.26953 0.16797 0.51953 0.38672 0.6875 0.73828 0.59375 1.3555 1.3125 1.8125 2.1367 0.69922 1.2617 0.875 2.4805 0.89453 3.2812v23.957c-0.20703 5.082-7.4258 4.9805-7.5508-0.20703v-16.906c0-0.51172-0.375-0.94922-0.875-1.0312-2.5625-0.41797-4.2812-2-4.9062-2.668-0.61328-0.6875-1.8242-0.19922-1.8008 0.70703v13.188c0 1.0742-0.875 1.9492-1.9492 1.9492-1.0742 0-1.9492-0.875-1.9492-1.9492v-10.125c0-0.32422-0.14453-0.625-0.39453-0.82422-0.25-0.19922-0.58203-0.26172-0.89453-0.1875-1.082 0.26953-2.1758 0.41797-3.3008 0.39453-4.457-0.019532-7.582-2.2695-8.7188-3.2305-0.4375-0.38672-1.1562-0.30078-1.5 0.15625-4.4805 5.9258-13.262 6.7617-18.762 1.9062-0.26172-0.21875-0.60547-0.30078-0.9375-0.23047-0.33203 0.082032-0.60547 0.32422-0.71875 0.63672-0.59375 1.543-2.0938 2.582-3.7305 2.582-0.85547 0-1.6758-0.28125-2.375-0.8125-0.64453-0.51953-1.6992 0-1.668 0.83203v8.207c0 0.96875-0.79297 1.75-1.75 1.75zm19.836 40.863c-0.16797 5.4883-8.1562 5.5195-8.332 0v-41.668c0.16797-5.4883 8.1562-5.5195 8.332 0v41.668zm15.102 0c-0.16797 5.4883-8.1562 5.5195-8.332 0v-41.668c0.16797-5.4883 8.1562-5.5195 8.332 0v41.668zm10.938 4.168c-2.3008 0-4.168-1.8633-4.168-4.168v-41.668c0-1.0117 0.36328-1.918 0.96875-2.6367v2.3633c-0.03125 3.9375 5.2305 5.5117 7.3633 2.2695v39.668c0 2.3008-1.8633 4.168-4.168 4.168zm29-22.23c-4.1367 2.8008-10.301 6.6875-14.938 9.5625v-20.668c3.1758 0.125 6.0195-2.6758 5.957-5.8555v-11.543h7.5625c2.4062 9.2617 2.8867 19.051 1.4375 28.512z"/>
<text x="0.0" y="117.5" font-size="5.0" font-weight="bold" font-family="Arbeit Regular, Helvetica, Arial-Unicode, Arial, Sans-serif" fill="#000000">Created by Yoyon Pujiyono</text><text x="0.0" y="122.5" font-size="5.0" font-weight="bold" font-family="Arbeit Regular, Helvetica, Arial-Unicode, Arial, Sans-serif" fill="#000000">from Noun Project</text></svg>